<svg width="24" height="24" viewBox="0 0 24 24" fill="none" xmlns="http://www.w3.org/2000/svg">
  <path d="M4.19048 24C5.46033 24 8.62435 22.492 10.4233 21.0878C10.6032 20.9496 10.7513 20.8921 10.8995 20.8921C11.0371 20.9035 11.1746 20.9151 11.3121 20.9151C18.9419 20.9151 24 16.1957 24 10.4633C24 4.67338 18.6667 0 12 0C5.33334 0 0 4.67338 0 10.4633C0 14.1467 2.08466 17.3813 5.48148 19.3611C5.64021 19.4532 5.69313 19.6259 5.60847 19.7985C5.01588 20.8576 3.95767 22.1237 3.55556 22.6993C3.14286 23.2748 3.37566 24 4.19048 24Z" fill="white"/>
</svg>