<svg  xmlns="http://www.w3.org/2000/svg" viewBox="0 0 24 24" width="24" height="24" fill="#d62311" stroke="#0000" stroke-width="1" stroke-linecap="round" stroke-linejoin="round">
  <g class="background">
 
  </g>
  <g class="icon">
    <g>
      <polygon points="5 4 17 4 17 9 19 9 19 2 3 2 3 21 10 21 10 19 5 19 5 4"></polygon>
      <rect x="7" y="6" width="8" height="2"></rect>
      <rect x="7" y="9" width="5" height="2"></rect>
      <rect x="7" y="12" width="3" height="2"></rect>
      <path d="M17,10c-3.31,0-6,2.69-6,6s2.69,6,6,6,6-2.69,6-6-2.69-6-6-6Zm0,10c-2.21,0-4-1.79-4-4s1.79-4,4-4,4,1.79,4,4-1.79,4-4,4Z"></path>
      <polygon points="18 13 16 13 16 15 14 15 14 17 16 17 16 19 18 19 18 17 20 17 20 15 18 15 18 13"></polygon>
    </g>
  </g>
</svg>